<?xml version="1.0" encoding="utf-8"?>
<!-- Generator: Adobe Illustrator 16.0.0, SVG Export Plug-In . SVG Version: 6.00 Build 0)  -->
<!DOCTYPE svg PUBLIC "-//W3C//DTD SVG 1.0//EN" "http://www.w3.org/TR/2001/REC-SVG-20010904/DTD/svg10.dtd">
<svg version="1.0" id="Layer_1" xmlns="http://www.w3.org/2000/svg" xmlns:xlink="http://www.w3.org/1999/xlink" x="0px" y="0px"
	 width="275px" height="159.667px" viewBox="0 0 275 159.667" enable-background="new 0 0 275 159.667" xml:space="preserve">
<g>
	<rect x="9.35" y="12.754" width="78.186" height="13.264"/>
	<rect x="9.35" y="28.11" width="37.697" height="13.264"/>
	<rect x="49.84" y="28.11" width="37.697" height="13.264"/>
	<rect x="9.35" y="43.47" width="78.186" height="13.264"/>
	<rect x="9.35" y="58.826" width="37.697" height="13.264"/>
	<rect x="49.84" y="58.826" width="37.697" height="13.264"/>
</g>
<g>
	<rect x="187.646" y="13.803" width="78.185" height="13.264"/>
	<rect x="187.646" y="29.16" width="37.695" height="13.264"/>
	<rect x="228.135" y="29.16" width="37.696" height="13.264"/>
	<rect x="187.646" y="44.519" width="37.695" height="13.264"/>
	<rect x="228.135" y="44.519" width="37.696" height="13.264"/>
	<rect x="187.646" y="59.874" width="37.695" height="13.264"/>
	<rect x="228.135" y="59.874" width="37.696" height="13.264"/>
</g>
<g>
	<rect x="9.35" y="102.109" width="37.697" height="13.264"/>
	<rect x="49.84" y="102.109" width="37.697" height="13.264"/>
	<rect x="9.35" y="86.752" width="37.697" height="13.265"/>
	<rect x="49.84" y="86.752" width="37.697" height="13.265"/>
	<rect x="9.35" y="117.469" width="37.697" height="13.264"/>
	<rect x="49.84" y="117.469" width="37.697" height="13.264"/>
	<rect x="9.35" y="132.824" width="37.697" height="13.264"/>
	<rect x="49.84" y="132.824" width="37.697" height="13.264"/>
</g>
<g>
	<rect x="98.498" y="101.061" width="24.364" height="13.264"/>
	<rect x="125.41" y="101.061" width="24.363" height="13.264"/>
	<rect x="152.321" y="101.061" width="24.363" height="13.264"/>
	<rect x="98.498" y="85.703" width="24.364" height="13.265"/>
	<rect x="125.41" y="85.703" width="24.363" height="13.265"/>
	<rect x="152.321" y="85.703" width="24.363" height="13.265"/>
	<rect x="98.498" y="131.775" width="24.364" height="13.266"/>
	<rect x="125.41" y="131.775" width="24.363" height="13.266"/>
	<rect x="152.321" y="131.775" width="24.363" height="13.266"/>
	<rect x="98.498" y="116.42" width="24.364" height="13.264"/>
	<rect x="125.41" y="116.42" width="24.363" height="13.264"/>
	<rect x="152.321" y="116.42" width="24.363" height="13.264"/>
</g>
<g>
	<rect x="187.646" y="101.061" width="51.273" height="13.264"/>
	<rect x="241.468" y="101.061" width="24.363" height="13.264"/>
	<rect x="187.646" y="85.703" width="24.362" height="13.265"/>
	<rect x="214.558" y="85.703" width="51.273" height="13.265"/>
	<rect x="187.646" y="131.775" width="51.273" height="13.266"/>
	<rect x="241.468" y="131.775" width="24.363" height="13.266"/>
	<rect x="187.646" y="116.419" width="24.362" height="13.267"/>
	<rect x="214.558" y="116.42" width="51.273" height="13.264"/>
</g>
<g>
	<rect x="98.44" y="12.754" width="78.188" height="13.264"/>
	<rect x="98.44" y="28.11" width="78.301" height="13.264"/>
	<rect x="98.44" y="43.47" width="78.188" height="13.264"/>
	<rect x="98.44" y="58.826" width="78.301" height="13.264"/>
</g>
</svg>
